<mxfile host="app.diagrams.net" agent="Mozilla/5.0 (Windows NT 10.0; Win64; x64) AppleWebKit/537.36 (KHTML, like Gecko) Chrome/129.0.0.0 Safari/537.36" version="24.8.0">
  <diagram name="Page-1" id="z91czqFmT3ff-m2mt2VU">
    <mxGraphModel dx="1498" dy="1097" grid="1" gridSize="10" guides="1" tooltips="1" connect="1" arrows="1" fold="1" page="1" pageScale="1" pageWidth="850" pageHeight="1100" math="0" shadow="0">
      <root>
        <mxCell id="0" />
        <mxCell id="1" parent="0" />
        <mxCell id="uiiCpgrEH-bAiR5GF76r-1" value="" style="strokeWidth=1;shadow=0;dashed=0;align=center;html=1;shape=mxgraph.mockup.containers.browserWindow;rSize=0;strokeColor=#666666;strokeColor2=#008cff;strokeColor3=#c4c4c4;mainText=,;recursiveResize=0;" parent="1" vertex="1">
          <mxGeometry x="40" y="120" width="760" height="940" as="geometry" />
        </mxCell>
        <mxCell id="uiiCpgrEH-bAiR5GF76r-2" value="DineScout" style="strokeWidth=1;shadow=0;dashed=0;align=center;html=1;shape=mxgraph.mockup.containers.anchor;fontSize=17;fontColor=#666666;align=left;whiteSpace=wrap;" parent="uiiCpgrEH-bAiR5GF76r-1" vertex="1">
          <mxGeometry x="60" y="12" width="110" height="26" as="geometry" />
        </mxCell>
        <mxCell id="uiiCpgrEH-bAiR5GF76r-3" value="https://www.dinescout.com/rest_food_list" style="strokeWidth=1;shadow=0;dashed=0;align=center;html=1;shape=mxgraph.mockup.containers.anchor;rSize=0;fontSize=17;fontColor=#666666;align=left;" parent="uiiCpgrEH-bAiR5GF76r-1" vertex="1">
          <mxGeometry x="130" y="60" width="250" height="26" as="geometry" />
        </mxCell>
        <mxCell id="uiiCpgrEH-bAiR5GF76r-4" value="" style="strokeWidth=1;shadow=0;dashed=0;align=center;html=1;shape=mxgraph.mockup.forms.rrect;rSize=0;strokeColor=#999999;fillColor=#ffffff;" parent="uiiCpgrEH-bAiR5GF76r-1" vertex="1">
          <mxGeometry x="180" y="110" width="420" height="830" as="geometry" />
        </mxCell>
        <mxCell id="uiiCpgrEH-bAiR5GF76r-5" value="&lt;div&gt;&lt;b&gt;Restaurant&lt;/b&gt;&lt;/div&gt;&lt;div&gt;&lt;b&gt;Food List&lt;/b&gt;&lt;/div&gt;" style="strokeWidth=1;shadow=0;dashed=0;align=center;html=1;shape=mxgraph.mockup.forms.anchor;fontSize=12;fontColor=#666666;align=left;resizeWidth=1;spacingLeft=0;" parent="uiiCpgrEH-bAiR5GF76r-4" vertex="1">
          <mxGeometry width="273" height="40" relative="1" as="geometry">
            <mxPoint x="172" y="139" as="offset" />
          </mxGeometry>
        </mxCell>
        <mxCell id="uiiCpgrEH-bAiR5GF76r-6" value="" style="strokeWidth=1;shadow=0;dashed=0;align=center;html=1;shape=mxgraph.mockup.forms.rrect;rSize=0;strokeColor=#999999;fontColor=#666666;align=left;spacingLeft=5;resizeWidth=1;" parent="uiiCpgrEH-bAiR5GF76r-4" vertex="1">
          <mxGeometry width="315" height="120" relative="1" as="geometry">
            <mxPoint x="54" y="187" as="offset" />
          </mxGeometry>
        </mxCell>
        <mxCell id="uiiCpgrEH-bAiR5GF76r-7" value="&lt;span style=&quot;font-size: 16px;&quot;&gt;Restaurant&lt;/span&gt;" style="strokeWidth=1;shadow=0;dashed=0;align=center;html=1;shape=mxgraph.mockup.forms.anchor;fontSize=12;fontColor=#666666;align=left;resizeWidth=1;spacingLeft=0;" parent="uiiCpgrEH-bAiR5GF76r-4" vertex="1">
          <mxGeometry width="70" height="20" relative="1" as="geometry">
            <mxPoint x="172" y="278" as="offset" />
          </mxGeometry>
        </mxCell>
        <mxCell id="uiiCpgrEH-bAiR5GF76r-8" value="" style="ellipse;whiteSpace=wrap;html=1;aspect=fixed;" parent="uiiCpgrEH-bAiR5GF76r-4" vertex="1">
          <mxGeometry x="163.98000000000002" y="50.303030303030305" width="80" height="80" as="geometry" />
        </mxCell>
        <mxCell id="uiiCpgrEH-bAiR5GF76r-9" value="Logo" style="text;strokeColor=none;fillColor=none;html=1;fontSize=24;fontStyle=1;verticalAlign=middle;align=center;" parent="uiiCpgrEH-bAiR5GF76r-4" vertex="1">
          <mxGeometry x="100" y="67.61" width="210" height="45.39" as="geometry" />
        </mxCell>
        <mxCell id="uiiCpgrEH-bAiR5GF76r-10" value="" style="verticalLabelPosition=bottom;shadow=0;dashed=0;align=center;html=1;verticalAlign=top;strokeWidth=1;shape=mxgraph.mockup.graphics.simpleIcon;strokeColor=#999999;" parent="uiiCpgrEH-bAiR5GF76r-4" vertex="1">
          <mxGeometry x="156.25" y="206" width="107.5" height="67" as="geometry" />
        </mxCell>
        <mxCell id="uiiCpgrEH-bAiR5GF76r-11" value="User Account" style="strokeWidth=1;shadow=0;dashed=0;align=center;html=1;shape=mxgraph.mockup.forms.rrect;rSize=5;strokeColor=none;fontColor=#ffffff;fillColor=#66bbff;fontSize=16;fontStyle=1;" parent="uiiCpgrEH-bAiR5GF76r-4" vertex="1">
          <mxGeometry x="290" y="10" width="120" height="30" as="geometry" />
        </mxCell>
        <mxCell id="uiiCpgrEH-bAiR5GF76r-12" value="&lt;span style=&quot;font-size: 16px;&quot;&gt;[List Cont.]&lt;/span&gt;" style="strokeWidth=1;shadow=0;dashed=0;align=center;html=1;shape=mxgraph.mockup.forms.anchor;fontSize=12;fontColor=#666666;align=left;resizeWidth=1;spacingLeft=0;" parent="uiiCpgrEH-bAiR5GF76r-4" vertex="1">
          <mxGeometry x="183.25" y="798" width="70" height="20" as="geometry" />
        </mxCell>
        <mxCell id="uiiCpgrEH-bAiR5GF76r-13" value="" style="strokeWidth=1;shadow=0;dashed=0;align=center;html=1;shape=mxgraph.mockup.forms.rrect;rSize=0;strokeColor=#999999;fontColor=#666666;align=left;spacingLeft=5;resizeWidth=1;" parent="1" vertex="1">
          <mxGeometry x="274" y="562" width="315" height="453" as="geometry" />
        </mxCell>
        <mxCell id="uiiCpgrEH-bAiR5GF76r-14" value="" style="verticalLabelPosition=bottom;shadow=0;dashed=0;align=center;html=1;verticalAlign=top;strokeWidth=1;shape=mxgraph.mockup.graphics.simpleIcon;strokeColor=#999999;" parent="1" vertex="1">
          <mxGeometry x="430" y="785" width="137.75" height="96" as="geometry" />
        </mxCell>
        <mxCell id="uiiCpgrEH-bAiR5GF76r-16" value="&lt;span style=&quot;font-size: 16px;&quot;&gt;Food Item #1&lt;/span&gt;" style="strokeWidth=1;shadow=0;dashed=0;align=center;html=1;shape=mxgraph.mockup.forms.anchor;fontSize=12;fontColor=#666666;align=left;resizeWidth=1;spacingLeft=0;" parent="1" vertex="1">
          <mxGeometry x="380.25" y="615" width="70" height="20" as="geometry" />
        </mxCell>
        <mxCell id="uiiCpgrEH-bAiR5GF76r-22" value="" style="rounded=0;whiteSpace=wrap;html=1;" parent="1" vertex="1">
          <mxGeometry x="294.75" y="944" width="275.25" height="70" as="geometry" />
        </mxCell>
        <mxCell id="uiiCpgrEH-bAiR5GF76r-23" value="&lt;div&gt;&lt;b&gt;Name: User Name&lt;/b&gt;&lt;/div&gt;&lt;div&gt;&lt;b&gt;Feedback: Feedback listed here&lt;/b&gt;&lt;/div&gt;&lt;div&gt;&lt;br&gt;&lt;/div&gt;&lt;div&gt;&lt;b&gt;User Review: 3.4&lt;/b&gt;&lt;/div&gt;" style="strokeWidth=1;shadow=0;dashed=0;align=center;html=1;shape=mxgraph.mockup.forms.anchor;fontSize=12;fontColor=#666666;align=left;resizeWidth=1;spacingLeft=0;perimeterSpacing=5;" parent="1" vertex="1">
          <mxGeometry x="297" y="960" width="273" height="40" as="geometry" />
        </mxCell>
        <mxCell id="uiiCpgrEH-bAiR5GF76r-24" value="Delete" style="strokeWidth=1;shadow=0;dashed=0;align=center;html=1;shape=mxgraph.mockup.forms.rrect;rSize=5;strokeColor=none;fontColor=#ffffff;fillColor=#66bbff;fontSize=16;fontStyle=1;" parent="1" vertex="1">
          <mxGeometry x="490" y="575" width="89.25" height="30" as="geometry" />
        </mxCell>
        <mxCell id="uiiCpgrEH-bAiR5GF76r-25" value="Update" style="strokeWidth=1;shadow=0;dashed=0;align=center;html=1;shape=mxgraph.mockup.forms.rrect;rSize=5;strokeColor=none;fontColor=#ffffff;fillColor=#66bbff;fontSize=16;fontStyle=1;" parent="1" vertex="1">
          <mxGeometry x="285.5" y="575" width="89.25" height="30" as="geometry" />
        </mxCell>
        <mxCell id="uiiCpgrEH-bAiR5GF76r-26" value="" style="rounded=0;whiteSpace=wrap;html=1;" parent="1" vertex="1">
          <mxGeometry x="294" y="669" width="273" height="20" as="geometry" />
        </mxCell>
        <mxCell id="uiiCpgrEH-bAiR5GF76r-28" value="" style="rounded=0;whiteSpace=wrap;html=1;" parent="1" vertex="1">
          <mxGeometry x="294" y="726" width="273" height="20" as="geometry" />
        </mxCell>
        <mxCell id="uiiCpgrEH-bAiR5GF76r-29" value="" style="rounded=0;whiteSpace=wrap;html=1;" parent="1" vertex="1">
          <mxGeometry x="295" y="785" width="113" height="20" as="geometry" />
        </mxCell>
        <mxCell id="uiiCpgrEH-bAiR5GF76r-30" value="&lt;span style=&quot;font-size: 16px;&quot;&gt;User Reviews&lt;/span&gt;" style="strokeWidth=1;shadow=0;dashed=0;align=center;html=1;shape=mxgraph.mockup.forms.anchor;fontSize=12;fontColor=#666666;align=left;resizeWidth=1;spacingLeft=0;" parent="1" vertex="1">
          <mxGeometry x="385" y="905" width="70" height="20" as="geometry" />
        </mxCell>
        <mxCell id="uiiCpgrEH-bAiR5GF76r-15" value="&lt;div&gt;&lt;b&gt;Food Name&lt;/b&gt;&lt;/div&gt;&lt;div&gt;&lt;b&gt;&lt;br&gt;&lt;/b&gt;&lt;/div&gt;&lt;div&gt;&lt;b&gt;Name&lt;/b&gt;&lt;/div&gt;&lt;div&gt;&lt;b&gt;&lt;br&gt;&lt;/b&gt;&lt;/div&gt;&lt;div&gt;&lt;b&gt;Description&lt;/b&gt;&lt;/div&gt;&lt;div&gt;&lt;b&gt;&lt;br&gt;&lt;/b&gt;&lt;/div&gt;&lt;div&gt;&lt;b&gt;Description&lt;/b&gt;&lt;/div&gt;&lt;div&gt;&lt;b&gt;&lt;br&gt;&lt;/b&gt;&lt;/div&gt;&lt;div&gt;&lt;b&gt;Price&lt;/b&gt;&lt;/div&gt;&lt;div&gt;&lt;b&gt;&lt;br&gt;&lt;/b&gt;&lt;/div&gt;&lt;div&gt;&lt;b&gt;$ Price&lt;/b&gt;&lt;/div&gt;&lt;div&gt;&lt;b&gt;&lt;br&gt;&lt;/b&gt;&lt;/div&gt;&lt;div&gt;&lt;b&gt;Average Review:&lt;/b&gt;&lt;/div&gt;&lt;div&gt;&lt;b&gt;4.2 stars&lt;/b&gt;&lt;/div&gt;&lt;div&gt;&lt;b&gt;&lt;br&gt;&lt;/b&gt;&lt;/div&gt;&lt;div&gt;&lt;b&gt;Update Image&lt;/b&gt;&lt;/div&gt;&lt;div&gt;&lt;b&gt;&lt;u&gt;&lt;font color=&quot;#3333ff&quot;&gt;Upload Here&lt;/font&gt;&lt;/u&gt;&lt;/b&gt;&lt;/div&gt;" style="strokeWidth=1;shadow=0;dashed=0;align=center;html=1;shape=mxgraph.mockup.forms.anchor;fontSize=12;fontColor=#666666;align=left;resizeWidth=1;spacingLeft=0;perimeterSpacing=5;" parent="1" vertex="1">
          <mxGeometry x="294.75" y="746" width="273" height="40" as="geometry" />
        </mxCell>
        <mxCell id="rN3G45JUCfXSQDEJx_VR-1" value="DineScout [Restaurant User Food List Page]" style="text;strokeColor=none;fillColor=none;html=1;fontSize=24;fontStyle=1;verticalAlign=middle;align=center;" vertex="1" parent="1">
          <mxGeometry x="375" y="40" width="100" height="60" as="geometry" />
        </mxCell>
      </root>
    </mxGraphModel>
  </diagram>
</mxfile>
